<?xml version="1.0" encoding="UTF-8" standalone="no"?>
<!-- Generator: Adobe Illustrator 12.0.0, SVG Export Plug-In . SVG Version: 6.00 Build 51448)  -->
<svg
   xmlns:dc="http://purl.org/dc/elements/1.1/"
   xmlns:cc="http://web.resource.org/cc/"
   xmlns:rdf="http://www.w3.org/1999/02/22-rdf-syntax-ns#"
   xmlns:svg="http://www.w3.org/2000/svg"
   xmlns="http://www.w3.org/2000/svg"
   xmlns:sodipodi="http://sodipodi.sourceforge.net/DTD/sodipodi-0.dtd"
   xmlns:inkscape="http://www.inkscape.org/namespaces/inkscape"
   height="272.106"
   id="Layer_1"
   inkscape:version="0.45"
   sodipodi:docbase="/home/bpepple/CVS/twitux/data"
   sodipodi:docname="twitux.svg"
   sodipodi:version="0.32"
   space="preserve"
   style="overflow:visible;enable-background:new 0 0 275.38 272.106;"
   version="1.1"
   viewBox="0 0 275.38 272.106"
   width="275.38"
   inkscape:output_extension="org.inkscape.output.svg.inkscape"
   inkscape:export-filename="/home/bpepple/CVS/twitux/data/twitux.png"
   inkscape:export-xdpi="15.69"
   inkscape:export-ydpi="15.69"
   sodipodi:modified="TRUE">
  <metadata
     id="metadata3">
    <rdf:RDF>
      <cc:Work
         rdf:about="">
        <dc:title>Dino</dc:title>
        <dc:description />
        <dc:subject>
          <rdf:Bag>
            <rdf:li>dinosaur</rdf:li>
          </rdf:Bag>
        </dc:subject>
        <dc:publisher>
          <cc:Agent
             rdf:about="http://www.openclipart.org/">
            <dc:title>Open Clip Art Library</dc:title>
          </cc:Agent>
        </dc:publisher>
        <dc:creator>
          <cc:Agent>
            <dc:title>Architetto Francesco Rollandin</dc:title>
          </cc:Agent>
        </dc:creator>
        <dc:rights>
          <cc:Agent>
            <dc:title>Architetto Francesco Rollandin</dc:title>
          </cc:Agent>
        </dc:rights>
        <dc:date />
        <dc:format>image/svg+xml</dc:format>
        <dc:type
           rdf:resource="http://purl.org/dc/dcmitype/StillImage" />
        <cc:license
           rdf:resource="http://web.resource.org/cc/PublicDomain" />
        <dc:language>en</dc:language>
      </cc:Work>
      <cc:License
         rdf:about="http://web.resource.org/cc/PublicDomain">
        <cc:permits
           rdf:resource="http://web.resource.org/cc/Reproduction" />
        <cc:permits
           rdf:resource="http://web.resource.org/cc/Distribution" />
        <cc:permits
           rdf:resource="http://web.resource.org/cc/DerivativeWorks" />
      </cc:License>
    </rdf:RDF>
  </metadata>
  <defs
     id="defs1456" />
  <sodipodi:namedview
     bordercolor="#666666"
     borderopacity="1.0"
     id="base"
     inkscape:current-layer="Layer_1"
     inkscape:cx="137.69"
     inkscape:cy="128.85442"
     inkscape:pageopacity="0.0"
     inkscape:pageshadow="2"
     inkscape:window-height="624"
     inkscape:window-width="872"
     inkscape:window-x="142"
     inkscape:window-y="25"
     inkscape:zoom="1.3230139"
     pagecolor="#ffffff" />
  <path
     d="M 173.40042,272.095 C 165.05842,269.116 156.73742,266.126 148.01542,264.491 C 142.68242,263.492 128.99442,266.355 129.33342,266.003 C 124.27242,262.835 120.95342,257.408 117.15242,252.749 C 114.50242,249.5 111.48642,246.556 108.75442,243.367 C 106.97542,241.291 105.36542,237.064 103.17942,235.91 C 101.61742,235.086 96.67842,235.91 93.86642,235.91 C 89.46242,235.91 85.12542,235.569 80.73542,235.231 C 72.92642,234.63 65.42142,237.206 57.74742,235.007 C 41.38542,230.32 32.10742,214.677 22.57142,201.517 C 13.49142,188.987 0.0014202528,171.818 0.0014202528,155.759 C 0.0014202528,152.726 3.3524203,149.027 5.0164203,146.345 C 7.3264203,142.624 9.8554203,139.152 11.95742,135.291 C 15.73442,128.357 18.66442,120.973 22.43742,114.05 C 31.59442,97.246 25.47242,82.258 13.90742,68.59 C 10.20142,64.21 0.35942025,55.025 0.35942025,48.899 C 0.35942025,40.262 13.12442,48.295 15.63042,49.549 C 21.35742,52.412 27.02042,59.082 31.88342,63.944 C 33.47242,65.533 37.00642,60.944 38.05642,62.643 C 41.03642,67.465 44.01742,72.287 46.99842,77.109 C 48.13442,78.947 49.09842,81.42 50.87442,82.217 C 50.99142,82.27 55.23842,80.442 55.16742,82.393 C 54.94942,88.383 53.08142,96.473 54.45542,102.28 C 54.89142,104.121 56.52942,103.02 56.86942,106.102 C 57.16742,108.795 56.29542,111.474 55.30642,113.946 C 53.18642,119.25 50.31342,124.373 48.72342,129.866 C 53.07142,129.322 55.96542,128.351 54.45442,133.807 C 53.65042,136.709 51.09242,139.92 49.18642,142.205 C 46.11442,145.893 38.65342,154.215 40.12342,158.884 C 41.88042,157.917 44.88642,154.192 47.28842,155.303 C 50.58442,156.828 49.29642,166.128 50.95042,169.433 C 53.28042,174.092 57.30142,167.133 60.54442,166.766 C 65.62142,166.191 69.56542,173.397 72.72442,176.798 C 74.16742,175.286 79.22442,168.307 80.98342,169.353 C 85.15742,171.834 89.33142,174.317 93.50442,176.798 C 94.85242,174.06 93.03542,171.019 94.57942,168.558 C 96.53842,165.436 106.11242,166.806 106.40042,165.333 C 106.96742,162.429 97.60442,162.285 96.01242,160.676 C 93.16342,157.796 96.00742,147.368 96.36842,143.122 C 92.89142,143.701 90.51642,144.393 87.20142,143.29 C 85.99342,142.888 86.88442,137.958 86.92442,136.837 C 87.20742,129.02 87.48942,121.203 87.77242,113.386 C 83.82542,113.28 70.81742,119.178 72.12942,112.302 C 73.99942,102.512 75.86842,92.723 77.73842,82.933 C 74.75342,82.933 71.76742,82.933 68.78242,82.933 C 71.45342,71.366 76.99042,62.017 83.53742,52.203 C 84.56042,50.669 89.47442,44.952 88.84742,43.167 C 88.01342,40.793 76.41242,39.862 73.44242,39.226 C 74.36242,36.01 79.18442,33.037 81.99942,31.493 C 89.05842,27.622 96.11742,23.751 103.17642,19.88 C 100.13042,16.834 90.07642,10.689 97.44542,6.983 C 101.26242,5.063 109.55342,6.606 114.14142,6.715 C 128.33142,7.053 141.23142,7.496 155.12442,10.208 C 155.16642,7.671 152.25842,6.2 152.25842,4.296 C 152.25842,-1.51 157.65142,-0.016 162.03342,0.781 C 170.09542,2.246 178.10042,7.05 184.50242,11.999 C 186.84442,13.81 189.30142,15.794 190.95042,18.269 C 192.00142,19.847 200.77942,19.055 203.06542,19.709 C 211.78842,22.204 215.16042,29.712 210.29542,37.794 C 213.20442,38.209 219.21742,38.714 218.89542,38.868 C 225.88342,40.726 232.87242,42.583 239.86042,44.441 C 243.33242,45.364 247.84542,45.617 247.55742,46.392 C 251.15342,47.591 254.59542,48.253 257.94642,48.899 C 260.79942,49.449 260.14842,50.821 262.24542,51.407 C 269.68342,53.485 272.31142,59.922 272.63442,60.006 C 273.22842,61.759 274.54442,75.213 275.06842,79.151 C 275.91242,85.498 274.85942,92.737 274.06942,99.056 C 272.44042,112.085 264.74442,121.448 252.93142,127.358 C 247.39342,130.129 243.15742,131.766 242.54242,124.134 C 242.12742,118.987 243.37742,113.075 237.88442,116.968 C 235.07642,118.958 232.77442,123.417 228.92742,123.417 C 223.45442,123.417 223.01542,118.633 221.04542,114.103 C 210.63342,123.649 201.85242,132.556 187.10542,133.422 C 181.44242,133.755 176.43642,129.866 170.89042,129.866 C 163.75242,129.866 156.27042,126.666 149.39542,124.85 C 144.53942,140.093 175.15642,148.966 183.42942,156.019 C 187.64342,159.611 186.28242,161.368 191.90142,160.071 C 195.29442,159.289 199.43242,156.647 202.37042,154.778 C 208.16542,151.09 220.77842,145.011 227.13742,150.288 C 225.15742,150.662 210.86642,152.42 211.37342,154.586 C 211.93842,156.993 229.79342,158.574 232.86842,160.497 C 235.00542,161.834 238.68142,165.984 236.09442,168.199 C 234.82542,169.285 232.51042,168.371 232.51042,166.051 C 232.51042,161.1 216.02242,160.648 212.44742,159.96 C 215.25242,164.513 219.95042,167.373 222.83742,171.782 C 226.48042,177.346 223.29642,183.439 219.53342,175.923 C 217.30442,171.472 212.44642,167.841 208.70642,164.723 C 204.79242,161.46 200.22442,167.036 196.32742,169.634 C 204.03642,180.643 209.77442,195.779 203.31342,208.683 C 201.41442,212.476 213.38142,213.939 216.23042,216.313 C 223.16342,222.09 223.05542,229.59 221.76242,238.061 C 225.63742,235.188 229.68942,232.867 233.47942,229.834 C 238.35342,225.936 237.76542,219.929 238.41142,214.253 C 239.21842,207.171 238.26742,194.905 244.69142,191.129 C 244.81042,195.19 244.92942,199.249 245.04842,203.31 C 247.62942,199.438 249.39442,195.31 254.00542,193.636 C 254.83742,193.334 255.78842,194.719 256.54642,193.961 C 257.92042,192.587 258.49542,191.611 260.45342,191.845 C 258.62442,201.594 254.87242,208.092 249.34742,216.206 C 245.54042,221.796 243.09942,231.427 236.65042,233.575 C 229.76742,235.868 227.07942,242.84 222.12042,247.016 C 218.05542,250.441 212.44642,252.647 212.44642,249.883 C 212.44642,246.51 214.15042,245.595 210.29642,242.717 C 203.25742,237.461 189.05042,231.735 179.22942,230.838 C 175.91842,230.536 176.28342,229.749 174.83042,229.104 C 173.12842,228.347 172.88842,227.208 170.47742,228.414 C 166.58842,230.357 166.11642,230.878 164.79742,234.836 C 163.84042,237.709 163.27442,240.498 161.21542,242.718 C 152.87842,251.708 133.93642,245.917 123.59842,245.226 C 124.76542,247.135 130.25442,258.386 132.00042,258.012 C 136.80942,256.982 141.77442,255.927 146.68842,255.577 C 151.66742,255.223 156.74742,254.541 161.73642,254.541 C 164.05442,254.541 172.45442,252.873 171.96342,255.974 C 171.46342,259.124 160.43542,258.215 160.49842,261.348 C 160.52942,262.887 172.87042,266.02 174.82942,266.72 C 175.83142,267.078 181.04042,267.914 180.02342,269.947 C 178.96642,272.063 175.43042,272.155 173.40042,272.095"
     id="path1431"
     style="fill-rule:evenodd" />
  <path
     d="M 151.54442,242.358 C 141.59342,241.031 131.64242,239.705 121.69042,238.378 C 117.47042,237.815 113.49342,237.919 109.98742,235.194 C 114.97142,230.923 124.49142,227.492 125.92842,220.326 C 126.97942,215.088 124.07442,207.555 118.94242,205.458 C 114.54042,203.659 116.20242,207.261 117.15242,210.114 C 118.94042,215.481 119.96542,220.122 114.53842,224.46 C 111.75142,226.688 108.70742,228.311 105.52942,229.9 C 101.75342,231.789 98.02342,230.854 93.86642,230.535 C 86.13142,229.94 77.97942,229.006 70.26442,230.291 C 51.69442,233.382 37.87242,215.325 29.15342,201.624 C 21.92542,190.268 13.72442,178.903 8.2414203,166.587 C 4.6664203,158.554 4.9474203,154.79 9.6754203,147.42 C 13.83042,140.942 18.10442,134.64 21.92742,127.947 C 28.53142,116.386 35.82942,100.627 31.88642,87.233 C 27.74642,73.173 17.49142,64.515 9.3164203,52.84 C 17.96642,57.919 24.44742,65.962 32.31142,72.703 C 38.13742,77.697 39.03942,72.364 42.01842,80.706 C 43.95242,86.12 43.85042,91.013 49.80042,91.531 C 48.97342,96.116 42.73442,114.193 48.36642,115.176 C 45.92842,121.676 43.49142,128.177 41.05442,134.677 C 40.07942,137.276 45.61042,136.671 46.93142,136.671 C 42.85042,142.12 36.47142,148.515 35.11042,155.301 C 33.54242,163.119 36.65942,163.813 44.06642,162.824 C 43.75342,168.317 46.53542,176.08 53.20342,176.08 C 55.79842,176.08 56.23442,174.612 58.03742,173.932 C 58.78442,173.65 59.45342,172.428 60.18742,172.497 C 61.37542,172.608 64.41742,177.18 65.20442,178.05 C 67.13442,180.186 70.17642,185.207 73.80242,184.678 C 76.62442,184.266 77.92442,179.691 79.35142,177.075 C 81.43342,173.256 90.80642,180.081 93.83742,181.672 C 96.63342,183.141 98.61042,185.243 100.31342,182.887 C 102.27842,180.166 97.51242,173.316 100.31342,170.707 C 103.34342,167.884 119.40542,171.788 113.92842,163.183 C 112.33542,160.68 107.34842,159.09 104.61342,158.167 C 104.06142,157.98 100.60242,157.563 100.70142,156.902 C 101.10942,154.159 101.51742,151.416 101.92642,148.673 C 102.37142,145.688 104.29042,141.165 102.10542,138.821 C 99.95242,136.511 94.56142,137.986 91.71742,138.104 C 92.53842,128.711 93.36142,119.319 94.18242,109.926 C 94.79342,102.928 79.96842,109.79 77.38742,110.518 C 77.38742,102.527 79.67042,94.698 82.18942,87.151 C 82.86642,85.124 85.98542,78.015 84.55242,76.125 C 83.16042,74.289 77.34042,77.248 75.23842,77.917 C 80.55142,67.762 85.86442,57.607 91.17742,47.453 C 92.88742,44.183 98.17242,41.605 95.65742,38.866 C 93.75842,36.798 85.24542,36.876 82.40242,36.359 C 85.16642,32.152 90.51542,30.781 94.87442,28.914 C 98.82542,27.222 102.15342,24.75 106.40442,24.178 C 108.54042,23.89 113.11242,24.679 113.56942,21.312 C 114.09142,17.463 104.22042,14.01 102.10442,11.639 C 104.46942,9.947 112.35542,11.105 115.27242,11.028 C 123.79342,10.804 131.38242,10.192 139.63142,12.192 C 145.39442,13.589 154.93742,17.702 160.50242,16.654 C 166.22042,15.577 161.52242,9.179 159.78542,5.549 C 169.52142,8.879 177.48942,11.43 184.86342,18.804 C 179.99742,19.663 138.25442,27.962 143.66442,35.284 C 145.26242,37.446 162.36442,29.831 165.83642,28.616 C 174.18042,25.696 182.94142,24.258 191.76542,24.678 C 195.18542,24.841 201.08242,24.64 203.85142,26.686 C 206.71042,28.798 205.48742,29.998 203.97942,33.417 C 203.48142,34.545 198.30542,43.707 202.05642,43.923 C 207.79042,44.254 213.52542,44.585 219.25942,44.916 C 226.98342,45.361 235.91642,49.152 243.52542,50.941 C 249.63042,52.377 260.82042,56.197 264.75542,61.436 C 265.25842,62.106 263.80742,62.459 264.03742,62.87 C 265.19242,64.928 266.12842,64.664 266.54542,67.169 C 267.11942,70.617 267.27442,74.12 267.56442,77.603 C 268.14042,84.538 267.85442,91.985 266.79842,98.848 C 264.97342,110.706 257.18242,116.999 248.27442,124.133 C 247.77642,120.246 248.74242,108.663 243.61642,107.653 C 239.17742,106.778 231.28642,114.353 228.57042,117.326 C 226.59242,114.237 227.76842,110.262 225.70442,107.295 C 222.68142,102.95 218.54342,106.719 214.45242,108.418 C 212.87242,109.074 204.34942,113.806 203.67242,111.774 C 203.02142,109.822 203.63842,106.395 202.77642,104.788 C 200.31542,100.197 192.53842,103.899 188.80442,104.788 C 183.78242,105.984 181.93942,106.85 180.74242,101.471 C 179.59542,96.317 178.58842,93.173 172.39042,94.943 C 164.29842,97.254 158.19842,99.231 155.29942,89.091 C 154.81342,87.391 151.66142,80.248 152.26042,78.994 C 152.96242,77.525 159.17242,77.099 161.21742,76.845 C 165.19542,76.349 184.50442,75.56 184.50442,69.196 C 184.50442,59.809 179.74242,52.72 173.66742,45.889 C 170.83642,42.705 169.61542,39.586 165.22342,39.586 C 161.30242,39.586 158.41542,40.806 154.96742,42.531 C 152.64142,43.695 140.18342,50.968 140.43742,53.557 C 141.10642,60.38 156.65742,47.872 158.64242,46.737 C 163.90942,43.725 165.14942,46.622 168.58042,50.625 C 171.27342,53.766 173.43842,57.131 175.62442,60.633 C 176.58242,62.169 176.63742,64.492 176.80042,66.276 C 177.05442,69.068 175.93842,68.488 173.39842,69.321 C 169.50242,70.598 165.02542,71.156 160.95942,71.526 C 155.42242,72.03 144.53242,70.537 144.37842,75.77 C 144.19542,81.999 148.12042,91.175 151.18542,96.549 C 153.23342,100.141 155.75442,102.998 160.14142,102.998 C 162.16242,102.998 164.23742,103.151 166.23142,102.819 C 167.48542,102.61 171.76942,100.544 172.68142,100.848 C 176.49742,102.119 173.77842,110.527 177.69642,112.671 C 180.30942,114.101 187.13642,111.37 189.39242,110.898 C 190.16942,110.735 196.23742,109.08 196.39642,109.738 C 196.93242,111.958 197.23642,118.321 198.83442,119.837 C 201.66642,122.525 205.76642,119.511 208.14842,118.045 C 202.70942,125.056 194.89542,130.49 185.76542,128.087 C 176.67242,125.694 167.38342,123.359 158.17942,121.421 C 153.28042,120.39 137.02842,115.783 133.27242,118.761 C 129.24342,121.956 141.04642,123.642 143.30242,124.135 C 140.54342,133.81 148.65742,142.392 156.20042,147.242 C 161.38942,150.578 167.14342,152.87 172.32242,156.199 C 174.87142,157.838 176.95342,160.169 179.48642,161.753 C 180.13742,162.16 181.01142,161.18 181.99642,161.753 C 171.30742,168.922 159.22342,150.647 152.26042,145.63 C 147.24142,142.015 141.11142,140.019 135.78142,143.84 C 133.69542,145.336 129.53642,150.653 135.06442,149.93 C 137.73442,149.58 138.16942,145.356 141.69142,146.527 C 143.74342,147.21 145.16642,147.672 146.88642,149.215 C 151.51542,153.366 155.52742,158.262 160.50042,162.111 C 166.05442,166.41 173.52442,168.695 180.56342,167.843 C 185.48542,167.247 193.69442,166.116 197.40242,162.47 C 188.78742,169.133 178.76742,173.932 168.46342,177.37 C 162.15842,179.474 157.38642,179.804 150.78442,178.703 C 148.97142,178.4 132.84742,174.738 133.81742,178.618 C 134.96142,183.187 145.93242,184.06 150.27042,184.928 C 155.65642,186.006 161.94842,184.321 167.24242,183.328 C 174.64142,181.94 184.00242,177.919 189.87842,173.216 C 199.32642,182.051 201.54342,195.626 197.40242,207.611 C 192.93942,220.53 179.48542,219.847 168.38142,223.016 C 170.37742,220.355 179.55042,212.182 175.54742,209.402 C 171.81342,206.809 167.51642,215.518 165.15642,217.641 C 163.53942,219.095 161.40542,219.383 160.88142,221.515 C 159.71542,226.259 158.55042,231.003 157.38542,235.746 C 156.41442,239.705 155.82742,241.765 151.54442,242.358"
     id="path1433"
     style="fill:#fc0400;fill-rule:evenodd;opacity:1;fill-opacity:1" />
  <path
     d="M 214.59942,238.775 C 204.13742,232.499 193.37742,226.954 180.92242,226.954 C 185.62442,224.593 190.94042,223.858 195.41242,220.877 C 197.06242,219.776 198.76642,216.009 200.55042,216.455 C 203.69042,217.24 208.19742,217.499 211.01642,219.072 C 215.66242,221.664 219.57242,239.699 214.59942,238.775"
     id="path1435"
     style="fill:#fc0400;fill-rule:evenodd;fill-opacity:1" />
  <path
     d="M 54.45642,201.159 C 50.01342,199.086 45.58842,195.185 44.06642,190.054 C 43.11842,186.855 43.59442,187.66 45.14142,186.114 C 44.86242,186.393 48.73242,184.663 48.00642,184.679 C 51.93742,184.592 55.18842,190.277 56.96242,194.352 C 58.12442,197.02 59.47742,203.636 54.45642,201.159"
     id="path1437"
     style="fill-rule:evenodd" />
  <path
     d="M 36.54242,185.038 C 34.09042,184.904 29.76342,180.302 33.32042,178.229 C 36.65842,176.285 41.29142,184.813 36.54242,185.038"
     id="path1439"
     style="fill-rule:evenodd" />
  <path
     d="M 25.79642,174.289 C 24.08342,174.464 22.22142,172.489 24.00542,171.424 C 26.23342,170.094 28.29442,172.74 25.79642,174.289"
     id="path1441"
     style="fill-rule:evenodd" />
  <path
     d="M 107.83742,96.189 C 103.95142,93.838 100.49942,80.627 107.09442,79.802 C 113.30342,79.026 113.34042,94.451 108.91242,96.548 C 108.77842,95.852 108.43942,96.355 107.83742,96.189"
     id="path1443"
     style="fill-rule:evenodd" />
  <path
     d="M 243.97642,89.024 C 241.61342,87.754 241.78042,79.137 242.72942,76.286 C 244.15542,72.004 246.39242,70.283 250.78342,71.111 C 253.21142,71.569 255.33442,72.382 255.08242,75.41 C 254.85842,78.089 246.31042,88.199 243.97642,89.024"
     id="path1445"
     style="fill-rule:evenodd" />
  <path
     d="M 107.83742,69.32 C 104.86642,68.836 105.07942,63.215 108.55342,63.588 C 112.03942,63.961 110.58942,69.891 107.83742,69.32"
     id="path1447"
     style="fill-rule:evenodd" />
  <path
     d="M 101.02842,66.454 C 95.76842,65.177 100.83842,60.743 102.82142,64.305 C 102.60442,65.135 101.92942,66.03 101.02842,66.454"
     id="path1449"
     style="fill-rule:evenodd" />
  <path
     d="M 184.50542,52.124 C 181.65242,52.02 182.35542,47.52 182.35542,45.137 C 182.35542,39.229 186.06342,37.793 190.95342,37.793 C 190.31342,44.191 191.85942,50.889 184.50542,52.124"
     id="path1451"
     style="fill-rule:evenodd" />
  <path
     d="M 112.49342,38.867 C 109.37242,38.187 109.42842,32.751 113.21242,32.778 C 118.24042,32.813 115.07642,37.904 112.49342,38.867"
     id="path1453"
     style="fill-rule:evenodd" />
</svg>
